<svg width="32" height="32" viewBox="0 0 32 32" fill="none" xmlns="http://www.w3.org/2000/svg">
<rect width="32" height="32" rx="6" fill="#ED6A32" fill-opacity="0.8"/>
<path d="M24 12L18 6.74001C17.45 6.24805 16.7379 5.97607 16 5.97607C15.2621 5.97607 14.55 6.24805 14 6.74001L8 12C7.68237 12.2841 7.4289 12.6326 7.25647 13.0223C7.08404 13.4119 6.99661 13.8339 7 14.26V23C7 23.7957 7.31607 24.5587 7.87868 25.1213C8.44129 25.6839 9.20435 26 10 26H22C22.7956 26 23.5587 25.6839 24.1213 25.1213C24.6839 24.5587 25 23.7957 25 23V14.25C25.002 13.8256 24.9138 13.4055 24.7415 13.0177C24.5691 12.6298 24.3164 12.283 24 12ZM18 24H14V19C14 18.7348 14.1054 18.4804 14.2929 18.2929C14.4804 18.1054 14.7348 18 15 18H17C17.2652 18 17.5196 18.1054 17.7071 18.2929C17.8946 18.4804 18 18.7348 18 19V24ZM23 23C23 23.2652 22.8946 23.5196 22.7071 23.7071C22.5196 23.8946 22.2652 24 22 24H20V19C20 18.2044 19.6839 17.4413 19.1213 16.8787C18.5587 16.3161 17.7956 16 17 16H15C14.2043 16 13.4413 16.3161 12.8787 16.8787C12.3161 17.4413 12 18.2044 12 19V24H10C9.73478 24 9.48043 23.8946 9.29289 23.7071C9.10536 23.5196 9 23.2652 9 23V14.25C9.00018 14.108 9.03059 13.9677 9.08922 13.8384C9.14784 13.7091 9.23333 13.5937 9.34 13.5L15.34 8.25001C15.5225 8.08969 15.7571 8.00127 16 8.00127C16.2429 8.00127 16.4775 8.08969 16.66 8.25001L22.66 13.5C22.7667 13.5937 22.8522 13.7091 22.9108 13.8384C22.9694 13.9677 22.9998 14.108 23 14.25V23Z" fill="white"/>
</svg>
