<svg width="14" height="14" viewBox="0 0 14 14" fill="none" xmlns="http://www.w3.org/2000/svg">
<path d="M8.99998 6.33334H7.66665V3.66667C7.66665 3.48986 7.59641 3.32029 7.47139 3.19526C7.34636 3.07024 7.17679 3 6.99998 3C6.82317 3 6.6536 3.07024 6.52858 3.19526C6.40355 3.32029 6.33332 3.48986 6.33332 3.66667V7C6.33332 7.17681 6.40355 7.34638 6.52858 7.47141C6.6536 7.59643 6.82317 7.66667 6.99998 7.66667H8.99998C9.17679 7.66667 9.34636 7.59643 9.47139 7.47141C9.59641 7.34638 9.66665 7.17681 9.66665 7C9.66665 6.82319 9.59641 6.65362 9.47139 6.5286C9.34636 6.40357 9.17679 6.33334 8.99998 6.33334ZM6.99998 0.333336C5.68144 0.333336 4.39251 0.724329 3.29618 1.45687C2.19985 2.18941 1.34537 3.23061 0.840786 4.44878C0.336202 5.66695 0.204179 7.0074 0.461414 8.3006C0.718649 9.59381 1.35359 10.7817 2.28594 11.714C3.21829 12.6464 4.40617 13.2813 5.69938 13.5386C6.99259 13.7958 8.33303 13.6638 9.55121 13.1592C10.7694 12.6546 11.8106 11.8001 12.5431 10.7038C13.2757 9.60748 13.6666 8.31854 13.6666 7C13.6666 6.12452 13.4942 5.25762 13.1592 4.44878C12.8241 3.63994 12.3331 2.90501 11.714 2.28596C11.095 1.6669 10.36 1.17584 9.55121 0.840806C8.74237 0.505774 7.87546 0.333336 6.99998 0.333336ZM6.99998 12.3333C5.94515 12.3333 4.914 12.0205 4.03694 11.4345C3.15988 10.8485 2.47629 10.0155 2.07263 9.04098C1.66896 8.06644 1.56334 6.99409 1.76913 5.95952C1.97492 4.92496 2.48287 3.97465 3.22875 3.22877C3.97463 2.48289 4.92494 1.97494 5.9595 1.76915C6.99407 1.56336 8.06642 1.66898 9.04096 2.07265C10.0155 2.47631 10.8485 3.1599 11.4345 4.03696C12.0205 4.91402 12.3333 5.94517 12.3333 7C12.3333 8.41449 11.7714 9.77105 10.7712 10.7712C9.77103 11.7714 8.41447 12.3333 6.99998 12.3333Z" fill="#3A3A3B"/>
</svg>
